<svg width="28" height="33" viewBox="0 0 28 33" fill="none" xmlns="http://www.w3.org/2000/svg">
<path d="M17.5 0L28 9.9V29.7C28 30.5752 27.6313 31.4146 26.9749 32.0335C26.3185 32.6523 25.4283 33 24.5 33H3.5C2.57174 33 1.6815 32.6523 1.02513 32.0335C0.368749 31.4146 0 30.5752 0 29.7V3.3C0 2.42479 0.368749 1.58542 1.02513 0.966547C1.6815 0.347677 2.57174 0 3.5 0H17.5ZM24.5 29.7V11.55H15.75V3.3H3.5V29.7H24.5ZM14 16.5L21 23.1H16.625V28.05H11.375V23.1H7L14 16.5Z" fill="black" fill-opacity="0.8"/>
</svg>
